<svg version="1.1" id="Layer_1" xmlns="http://www.w3.org/2000/svg" xmlns:xlink="http://www.w3.org/1999/xlink" x="0px" y="0px"
	 width="100%" viewBox="0 0 1046 836" enable-background="new 0 0 1046 836" xml:space="preserve">
<path fill="#FFFFFF" opacity="1.000000" stroke="none" 
	d="
M632.000000,837.000000 
	C421.361237,837.000000 211.222458,837.000000 1.041846,837.000000 
	C1.041846,558.398254 1.041846,279.796448 1.041846,1.097331 
	C349.555481,1.097331 698.110962,1.097331 1046.833252,1.097331 
	C1046.833252,279.666595 1046.833252,558.333313 1046.833252,837.000000 
	C908.796387,837.000000 770.648193,837.000000 632.000000,837.000000 
M795.379395,117.178780 
	C794.757935,116.647064 794.191711,116.027596 793.507080,115.596100 
	C722.964478,71.140213 646.065857,45.647728 562.994019,39.193241 
	C515.089966,35.471210 467.513000,38.520531 420.497711,48.839211 
	C304.984985,74.191353 209.380569,132.391342 134.822220,224.109543 
	C70.332268,303.442108 34.028587,394.584412 24.834513,496.487762 
	C21.299614,535.667175 22.456045,574.711487 28.260075,613.565918 
	C37.132305,672.960083 55.967709,729.071716 84.935646,781.729187 
	C86.675865,784.892517 88.507195,788.005737 90.454933,791.420715 
	C127.189926,770.210938 163.522903,749.233276 199.882172,728.240417 
	C199.069244,726.752258 198.603592,725.874939 198.115723,725.010254 
	C170.322708,675.750671 154.329697,622.864685 150.252960,566.507446 
	C147.252853,525.033386 151.291855,484.140167 161.880188,443.856232 
	C210.323944,259.549316 390.960052,140.215973 579.600769,168.178772 
	C631.194946,175.826767 679.194641,193.527145 723.566956,220.997787 
	C724.950562,221.854385 726.508728,222.429169 728.308533,223.718643 
	C755.782532,242.313980 781.832764,262.651093 803.408386,288.044342 
	C815.217102,301.942474 826.930359,316.066895 837.174622,331.118378 
	C857.388794,360.818054 872.532349,393.088470 883.403381,427.439117 
	C894.656433,462.996735 900.326355,499.424103 900.706909,536.540649 
	C900.893127,554.706909 899.438416,573.063843 896.748901,591.038635 
	C893.816956,610.633423 889.451904,630.122925 884.162598,649.229492 
	C876.911804,675.421692 865.980774,700.268250 852.471191,723.901672 
	C850.540466,727.279297 851.070496,728.914307 854.536499,730.896057 
	C883.833435,747.646484 912.999634,764.625366 942.225830,781.499817 
	C947.905518,784.779114 953.675232,787.902771 960.656372,791.797241 
	C970.661011,770.538147 981.032166,750.256897 989.861389,729.325256 
	C1002.988159,698.205627 1012.971985,665.959167 1018.158630,632.527710 
	C1021.885193,608.506592 1024.854858,584.306824 1026.688477,560.075317 
	C1027.862915,544.555908 1026.878540,528.801086 1025.909546,513.210999 
	C1024.862793,496.367889 1023.077148,479.546722 1020.947754,462.800629 
	C1017.845642,438.404694 1011.796326,414.611633 1004.526550,391.155243 
	C992.462219,352.228577 976.016296,315.245056 954.773132,280.419952 
	C931.373901,242.060211 904.279602,206.611221 870.825195,176.473114 
	C853.329712,160.711960 834.880859,145.986282 816.508545,131.233826 
	C810.105652,126.092537 802.639771,122.275146 795.379395,117.178780 
M419.672150,502.241882 
	C421.235199,499.767975 422.798279,497.294067 424.438873,494.697418 
	C418.937286,493.006042 415.915924,494.887970 413.554688,499.323975 
	C410.666809,504.749329 407.009155,509.758881 403.941071,515.095825 
	C400.053467,521.858337 395.805939,528.514038 392.844635,535.682983 
	C389.382599,544.064331 390.422821,552.527344 396.756805,559.494873 
	C403.053497,566.421387 411.185791,567.893066 420.072357,566.019165 
	C430.022217,563.920898 436.850677,555.181335 436.873474,544.635315 
	C436.896698,533.896240 430.319153,525.093567 420.181824,523.359558 
	C415.623169,522.579773 410.820343,523.227478 406.176575,523.227478 
	C410.296082,516.806946 414.776184,509.824310 419.672150,502.241882 
M572.684692,528.811096 
	C565.505432,522.004211 557.039307,521.810486 547.235229,524.684448 
	C553.999084,514.136719 560.216553,504.441010 566.467163,494.693695 
	C560.708679,492.893860 557.821411,495.057465 555.423279,499.498260 
	C551.948975,505.931976 547.634705,511.906311 543.986572,518.253540 
	C540.598938,524.147461 537.036194,530.049805 534.601318,536.354309 
	C531.619019,544.076111 532.608398,551.826904 537.905640,558.544434 
	C545.394226,568.040894 561.025879,569.594910 570.776123,561.935120 
	C580.501099,554.295227 581.563904,539.863708 572.684692,528.811096 
M470.456451,566.842590 
	C480.100220,566.181030 488.308777,562.737061 491.430145,552.936340 
	C492.805389,548.618225 493.188904,542.921509 491.471161,538.955994 
	C489.424622,534.231567 484.638824,530.693726 481.173859,526.792725 
	C489.351166,521.740845 492.416443,515.779785 490.486298,507.138336 
	C488.668884,499.001526 482.474976,493.782318 473.450226,492.783020 
	C463.098389,491.636780 454.845276,495.657776 451.036163,503.822388 
	C452.754791,504.698242 454.474884,505.574860 456.081329,506.393585 
	C462.474609,498.905487 469.310791,496.700745 476.056458,499.661407 
	C481.700592,502.138611 485.088562,507.649048 483.967346,513.798523 
	C481.988647,524.650757 472.911285,524.476257 464.772003,525.231873 
	C464.772003,527.324768 464.772003,529.068542 464.772003,530.787659 
	C478.983185,531.745422 484.554352,534.968872 485.848755,542.825623 
	C487.036743,550.036560 483.463684,556.552490 476.754120,559.410828 
	C468.587952,562.889709 461.101044,559.866394 454.046692,550.131226 
	C452.146759,550.883057 450.206879,551.650635 448.244781,552.427063 
	C452.720886,561.683289 457.786896,565.057068 470.456451,566.842590 
M589.676819,515.507935 
	C592.249573,523.371094 597.921753,527.534607 605.930237,527.915833 
	C612.928955,528.249023 618.517883,524.979370 621.784668,518.679932 
	C625.232971,512.030518 624.552368,505.484070 619.973206,499.520203 
	C615.371826,493.527374 606.798767,491.385345 599.753052,494.294830 
	C591.800720,497.578644 588.091370,504.914856 589.676819,515.507935 
M655.958984,563.621826 
	C663.717773,557.963135 666.327209,549.881714 662.975220,541.892456 
	C659.913879,534.595947 651.991577,530.103577 644.483643,531.433105 
	C637.321350,532.701477 632.292969,536.640625 630.239990,543.685120 
	C628.140869,550.887634 629.937378,557.350586 635.762756,562.082886 
	C641.675415,566.885986 648.379089,567.502258 655.958984,563.621826 
M621.244995,543.840454 
	C631.293213,527.240234 641.341431,510.639984 651.564697,493.750641 
	C649.610535,492.843719 648.170593,492.175446 646.543579,491.420349 
	C631.545410,516.139832 616.719238,540.575806 601.683044,565.357971 
	C603.504089,566.246399 605.037903,566.994690 606.708801,567.809875 
	C611.563232,559.813782 616.220398,552.142578 621.244995,543.840454 
M517.661255,556.494751 
	C515.429565,556.318970 512.234802,555.176208 511.202362,556.204529 
	C509.814087,557.587219 509.144409,561.088623 509.962830,562.842224 
	C510.603943,564.216125 514.366577,565.379883 516.050537,564.759399 
	C519.492310,563.491089 520.150757,560.378235 517.661255,556.494751 
z"/>
<path fill="#4CE601" opacity="1.000000" stroke="none" 
	d="
M727.985474,223.135315 
	C726.508728,222.429169 724.950562,221.854385 723.566956,220.997787 
	C679.194641,193.527145 631.194946,175.826767 579.600769,168.178772 
	C390.960052,140.215973 210.323944,259.549316 161.880188,443.856232 
	C151.291855,484.140167 147.252853,525.033386 150.252960,566.507446 
	C154.329697,622.864685 170.322708,675.750671 198.115723,725.010254 
	C198.603592,725.874939 199.069244,726.752258 199.882172,728.240417 
	C163.522903,749.233276 127.189926,770.210938 90.454933,791.420715 
	C88.507195,788.005737 86.675865,784.892517 84.935646,781.729187 
	C55.967709,729.071716 37.132305,672.960083 28.260075,613.565918 
	C22.456045,574.711487 21.299614,535.667175 24.834513,496.487762 
	C34.028587,394.584412 70.332268,303.442108 134.822220,224.109543 
	C209.380569,132.391342 304.984985,74.191353 420.497711,48.839211 
	C467.513000,38.520531 515.089966,35.471210 562.994019,39.193241 
	C646.065857,45.647728 722.964478,71.140213 793.507080,115.596100 
	C794.191711,116.027596 794.757935,116.647064 795.219971,117.755661 
	C772.702209,153.266800 750.343811,188.201065 727.985474,223.135315 
z"/>
<path fill="#D6D6D6" opacity="1.000000" stroke="none" 
	d="
M728.146973,223.426971 
	C750.343811,188.201065 772.702209,153.266800 795.359985,118.092834 
	C802.639771,122.275146 810.105652,126.092537 816.508545,131.233826 
	C834.880859,145.986282 853.329712,160.711960 870.825195,176.473114 
	C904.279602,206.611221 931.373901,242.060211 954.773132,280.419952 
	C976.016296,315.245056 992.462219,352.228577 1004.526550,391.155243 
	C1011.796326,414.611633 1017.845642,438.404694 1020.947754,462.800629 
	C1023.077148,479.546722 1024.862793,496.367889 1025.909546,513.210999 
	C1026.878540,528.801086 1027.862915,544.555908 1026.688477,560.075317 
	C1024.854858,584.306824 1021.885193,608.506592 1018.158630,632.527710 
	C1012.971985,665.959167 1002.988159,698.205627 989.861389,729.325256 
	C981.032166,750.256897 970.661011,770.538147 960.656372,791.797241 
	C953.675232,787.902771 947.905518,784.779114 942.225830,781.499817 
	C912.999634,764.625366 883.833435,747.646484 854.536499,730.896057 
	C851.070496,728.914307 850.540466,727.279297 852.471191,723.901672 
	C865.980774,700.268250 876.911804,675.421692 884.162598,649.229492 
	C889.451904,630.122925 893.816956,610.633423 896.748901,591.038635 
	C899.438416,573.063843 900.893127,554.706909 900.706909,536.540649 
	C900.326355,499.424103 894.656433,462.996735 883.403381,427.439117 
	C872.532349,393.088470 857.388794,360.818054 837.174622,331.118378 
	C826.930359,316.066895 815.217102,301.942474 803.408386,288.044342 
	C781.832764,262.651093 755.782532,242.313980 728.146973,223.426971 
z"/>
<path fill="#202020" opacity="1.000000" stroke="none" 
	d="
M419.464233,502.541779 
	C414.776184,509.824310 410.296082,516.806946 406.176575,523.227478 
	C410.820343,523.227478 415.623169,522.579773 420.181824,523.359558 
	C430.319153,525.093567 436.896698,533.896240 436.873474,544.635315 
	C436.850677,555.181335 430.022217,563.920898 420.072357,566.019165 
	C411.185791,567.893066 403.053497,566.421387 396.756805,559.494873 
	C390.422821,552.527344 389.382599,544.064331 392.844635,535.682983 
	C395.805939,528.514038 400.053467,521.858337 403.941071,515.095825 
	C407.009155,509.758881 410.666809,504.749329 413.554688,499.323975 
	C415.915924,494.887970 418.937286,493.006042 424.438873,494.697418 
	C422.798279,497.294067 421.235199,499.767975 419.464233,502.541779 
M425.567780,556.020691 
	C426.425995,554.801758 427.437744,553.662231 428.116638,552.350525 
	C431.620422,545.580627 430.143097,536.997925 424.735168,532.198792 
	C419.779419,527.800964 410.954102,527.168518 405.155182,530.795654 
	C399.166321,534.541565 396.557861,542.319336 398.812439,549.708191 
	C402.232635,560.917114 415.119141,564.278625 425.567780,556.020691 
z"/>
<path fill="#202020" opacity="1.000000" stroke="none" 
	d="
M572.930786,529.073242 
	C581.563904,539.863708 580.501099,554.295227 570.776123,561.935120 
	C561.025879,569.594910 545.394226,568.040894 537.905640,558.544434 
	C532.608398,551.826904 531.619019,544.076111 534.601318,536.354309 
	C537.036194,530.049805 540.598938,524.147461 543.986572,518.253540 
	C547.634705,511.906311 551.948975,505.931976 555.423279,499.498260 
	C557.821411,495.057465 560.708679,492.893860 566.467163,494.693695 
	C560.216553,504.441010 553.999084,514.136719 547.235229,524.684448 
	C557.039307,521.810486 565.505432,522.004211 572.930786,529.073242 
M561.180603,559.998108 
	C570.257080,556.089355 574.199341,547.418335 570.974182,538.457153 
	C568.099487,530.469727 559.132568,526.420044 550.428223,529.178040 
	C542.698425,531.627258 538.338989,540.458374 540.616394,549.054321 
	C542.941467,557.829956 550.793640,562.246277 561.180603,559.998108 
z"/>
<path fill="#202020" opacity="1.000000" stroke="none" 
	d="
M470.022400,566.840820 
	C457.786896,565.057068 452.720886,561.683289 448.244781,552.427063 
	C450.206879,551.650635 452.146759,550.883057 454.046692,550.131226 
	C461.101044,559.866394 468.587952,562.889709 476.754120,559.410828 
	C483.463684,556.552490 487.036743,550.036560 485.848755,542.825623 
	C484.554352,534.968872 478.983185,531.745422 464.772003,530.787659 
	C464.772003,529.068542 464.772003,527.324768 464.772003,525.231873 
	C472.911285,524.476257 481.988647,524.650757 483.967346,513.798523 
	C485.088562,507.649048 481.700592,502.138611 476.056458,499.661407 
	C469.310791,496.700745 462.474609,498.905487 456.081329,506.393585 
	C454.474884,505.574860 452.754791,504.698242 451.036163,503.822388 
	C454.845276,495.657776 463.098389,491.636780 473.450226,492.783020 
	C482.474976,493.782318 488.668884,499.001526 490.486298,507.138336 
	C492.416443,515.779785 489.351166,521.740845 481.173859,526.792725 
	C484.638824,530.693726 489.424622,534.231567 491.471161,538.955994 
	C493.188904,542.921509 492.805389,548.618225 491.430145,552.936340 
	C488.308777,562.737061 480.100220,566.181030 470.022400,566.840820 
z"/>
<path fill="#212121" opacity="1.000000" stroke="none" 
	d="
M589.553162,515.110107 
	C588.091370,504.914856 591.800720,497.578644 599.753052,494.294830 
	C606.798767,491.385345 615.371826,493.527374 619.973206,499.520203 
	C624.552368,505.484070 625.232971,512.030518 621.784668,518.679932 
	C618.517883,524.979370 612.928955,528.249023 605.930237,527.915833 
	C597.921753,527.534607 592.249573,523.371094 589.553162,515.110107 
M611.912354,500.230103 
	C610.147034,499.825867 608.391602,499.129425 606.614624,499.069275 
	C599.907471,498.842224 594.723145,503.897888 594.703003,510.463013 
	C594.682922,517.006042 599.878601,522.059326 606.547546,521.983032 
	C611.629761,521.924866 615.977722,518.821411 617.580261,514.108459 
	C619.254333,509.184967 617.666626,504.919128 611.912354,500.230103 
z"/>
<path fill="#202020" opacity="1.000000" stroke="none" 
	d="
M655.628052,563.808960 
	C648.379089,567.502258 641.675415,566.885986 635.762756,562.082886 
	C629.937378,557.350586 628.140869,550.887634 630.239990,543.685120 
	C632.292969,536.640625 637.321350,532.701477 644.483643,531.433105 
	C651.991577,530.103577 659.913879,534.595947 662.975220,541.892456 
	C666.327209,549.881714 663.717773,557.963135 655.628052,563.808960 
M635.165649,548.528992 
	C636.048157,555.692566 639.680481,559.649780 645.803467,560.118408 
	C651.585083,560.560852 656.434509,557.425171 658.118896,552.154968 
	C660.135864,545.844421 656.510620,539.463745 649.817261,537.543274 
	C642.968811,535.578308 637.118896,539.651489 635.165649,548.528992 
z"/>
<path fill="#242424" opacity="1.000000" stroke="none" 
	d="
M621.061279,544.155945 
	C616.220398,552.142578 611.563232,559.813782 606.708801,567.809875 
	C605.037903,566.994690 603.504089,566.246399 601.683044,565.357971 
	C616.719238,540.575806 631.545410,516.139832 646.543579,491.420349 
	C648.170593,492.175446 649.610535,492.843719 651.564697,493.750641 
	C641.341431,510.639984 631.293213,527.240234 621.061279,544.155945 
z"/>
<path fill="#1F1F1F" opacity="1.000000" stroke="none" 
	d="
M517.889404,556.778931 
	C520.150757,560.378235 519.492310,563.491089 516.050537,564.759399 
	C514.366577,565.379883 510.603943,564.216125 509.962830,562.842224 
	C509.144409,561.088623 509.814087,557.587219 511.202362,556.204529 
	C512.234802,555.176208 515.429565,556.318970 517.889404,556.778931 
z"/>
<path fill="#FAFAFA" opacity="1.000000" stroke="none" 
	d="
M425.303772,556.285156 
	C415.119141,564.278625 402.232635,560.917114 398.812439,549.708191 
	C396.557861,542.319336 399.166321,534.541565 405.155182,530.795654 
	C410.954102,527.168518 419.779419,527.800964 424.735168,532.198792 
	C430.143097,536.997925 431.620422,545.580627 428.116638,552.350525 
	C427.437744,553.662231 426.425995,554.801758 425.303772,556.285156 
z"/>
<path fill="#FAFAFA" opacity="1.000000" stroke="none" 
	d="
M560.789490,560.089233 
	C550.793640,562.246277 542.941467,557.829956 540.616394,549.054321 
	C538.338989,540.458374 542.698425,531.627258 550.428223,529.178040 
	C559.132568,526.420044 568.099487,530.469727 570.974182,538.457153 
	C574.199341,547.418335 570.257080,556.089355 560.789490,560.089233 
z"/>
<path fill="#FAFAFA" opacity="1.000000" stroke="none" 
	d="
M612.241089,500.438232 
	C617.666626,504.919128 619.254333,509.184967 617.580261,514.108459 
	C615.977722,518.821411 611.629761,521.924866 606.547546,521.983032 
	C599.878601,522.059326 594.682922,517.006042 594.703003,510.463013 
	C594.723145,503.897888 599.907471,498.842224 606.614624,499.069275 
	C608.391602,499.129425 610.147034,499.825867 612.241089,500.438232 
z"/>
<path fill="#F9F9F9" opacity="1.000000" stroke="none" 
	d="
M635.169434,548.134399 
	C637.118896,539.651489 642.968811,535.578308 649.817261,537.543274 
	C656.510620,539.463745 660.135864,545.844421 658.118896,552.154968 
	C656.434509,557.425171 651.585083,560.560852 645.803467,560.118408 
	C639.680481,559.649780 636.048157,555.692566 635.169434,548.134399 
z"/>
</svg>